<?xml version="1.0" encoding="UTF-8"?>
<!DOCTYPE svg PUBLIC "-//W3C//DTD SVG 1.1//EN" "http://www.w3.org/Graphics/SVG/1.1/DTD/svg11.dtd">
<svg xmlns="http://www.w3.org/2000/svg" version="1.1" width="512px" height="512px" style="shape-rendering:geometricPrecision; text-rendering:geometricPrecision; image-rendering:optimizeQuality; fill-rule:evenodd; clip-rule:evenodd" xmlns:xlink="http://www.w3.org/1999/xlink">
<g><path style="opacity:1" fill="#888888" d="M 40.5,-0.5 C 183.833,-0.5 327.167,-0.5 470.5,-0.5C 491.833,5.5 505.5,19.1667 511.5,40.5C 511.5,183.833 511.5,327.167 511.5,470.5C 505.5,491.833 491.833,505.5 470.5,511.5C 327.167,511.5 183.833,511.5 40.5,511.5C 19.1667,505.5 5.5,491.833 -0.5,470.5C -0.5,327.167 -0.5,183.833 -0.5,40.5C 5.5,19.1667 19.1667,5.5 40.5,-0.5 Z"/></g>
<g><path style="opacity:1" fill="#d5d5d5" d="M 155.5,98.5 C 155.5,203.167 155.5,307.833 155.5,412.5C 168.833,412.5 182.167,412.5 195.5,412.5C 182.01,413.496 168.344,413.829 154.5,413.5C 154.167,308.332 154.501,203.332 155.5,98.5 Z"/></g>
<g><path style="opacity:1" fill="#fefefe" d="M 155.5,98.5 C 189.168,98.3333 222.835,98.5 256.5,99C 335.606,104.423 367.44,145.923 352,223.5C 343.168,249.668 326.001,268.168 300.5,279C 286.109,285.014 271.109,288.681 255.5,290C 235.503,290.5 215.503,290.667 195.5,290.5C 195.5,331.167 195.5,371.833 195.5,412.5C 182.167,412.5 168.833,412.5 155.5,412.5C 155.5,307.833 155.5,203.167 155.5,98.5 Z"/></g>
<g><path style="opacity:1" fill="#888888" d="M 195.5,132.5 C 216.193,132.144 236.86,132.644 257.5,134C 303.56,140.425 322.06,166.592 313,212.5C 307.535,232.631 294.702,245.465 274.5,251C 265.578,253.037 256.578,254.704 247.5,256C 230.17,256.5 212.837,256.667 195.5,256.5C 195.5,215.167 195.5,173.833 195.5,132.5 Z"/></g>
</svg>
